<svg xmlns="http://www.w3.org/2000/svg" width="156.694" height="30.26" viewBox="0 0 156.694 30.26">
  <g id="Logo_Copy" data-name="Logo Copy" transform="translate(0 -0.031)">
    <g id="Group_14" data-name="Group 14">
      <path id="Fill_1" data-name="Fill 1" d="M13.383,18.891V17.86H24.406V11.305H13.383V8.616H24.406V0H0V29.146s13.383,0,13.383,0H24.407v-8.6H13.383" transform="translate(101.292 0.589)" fill="#fff"/>
      <path id="Fill_3" data-name="Fill 3" d="M14.817,0H0V29.145H13.382V22.834h1.435A11.533,11.533,0,0,0,26.5,11.417C26.5,4.511,21.1,0,14.817,0" transform="translate(25.015 0.589)" fill="#fff"/>
      <path id="Fill_5" data-name="Fill 5" d="M5.974,19.5H0A10.484,10.484,0,0,0,10.721,30.26a12.525,12.525,0,0,0,5.166-1.085h0a10.109,10.109,0,0,0,6.133-9.2l0-.119a8.02,8.02,0,0,0-2.851-6.214l-2.96-2.876h5.814A10.485,10.485,0,0,0,11.3,0,11.907,11.907,0,0,0,6.243,1.079l.015.015-.015-.015A10.011,10.011,0,0,0,.43,10.29v.119A8,8,0,0,0,3,16.467C4.776,18.279,5.987,19.5,5.987,19.5Z" transform="translate(0 0.031)" fill="#fff"/>
      <path id="Fill_8" data-name="Fill 8" d="M13.925,14.188v.005l.008-.008-.008-.009h0V0H0V29.146H13.925Z" transform="translate(53.388 0.587)" fill="#fff"/>
      <path id="Fill_10" data-name="Fill 10" d="M13.385,0h.16a14.574,14.574,0,1,1,0,29.145H0V0Z" transform="translate(128.36 0.589)" fill="#fff"/>
      <path id="Fill_12" data-name="Fill 12" d="M13.442,13.077a2.817,2.817,0,0,1,3.766.059h0a2.8,2.8,0,0,1,.5.634H30.527a14.762,14.762,0,0,0-4.743-9.719A15.479,15.479,0,0,0,4.914,4.041a14.957,14.957,0,0,0-.025,22.145h0a15.485,15.485,0,0,0,20.92-.007,14.773,14.773,0,0,0,4.725-9.721H17.718a2.74,2.74,0,0,1-.484.635,2.825,2.825,0,0,1-3.816.058,2.67,2.67,0,0,1,.024-4.075" transform="translate(69.024 0.037)" fill="#fff"/>
    </g>
  </g>
</svg>
